<svg width="401" height="456" viewBox="0 0 401 456" fill="none" xmlns="http://www.w3.org/2000/svg">
<path d="M77.916 196.548V232.919H108.052V220.657H100.518V219.098H108.052V210.37H100.518V208.81H108.052V196.548H77.916Z" fill="#2BB1FD"/>
<path d="M130.13 214.785V196.601H111.946V232.972H140.211V214.785H130.13Z" fill="#2BB1FD"/>
<path d="M143.949 196.548V232.919H174.085V220.657H166.551V219.098H174.085V210.37H166.551V208.81H174.085V196.548H143.949Z" fill="#2BB1FD"/>
<path d="M177.976 232.972H214.347L214.243 195.198L196.057 208.967L177.873 195.198L177.976 232.972Z" fill="#2BB1FD"/>
<path d="M218.135 196.548V232.919H248.271V220.657H240.737V219.098H248.271V210.37H240.737V208.81H248.271V196.548H218.135Z" fill="#2BB1FD"/>
<path d="M252.165 195.717V232.972H288.536V196.601H270.455V210.007L252.165 195.717Z" fill="#2BB1FD"/>
<path d="M317.576 214.838H324.644V196.601H291.858V214.838H299.392V233.025H317.576V214.838Z" fill="#2BB1FD"/>
<path d="M82.3102 203.41V239.765H112.429V227.503H104.908V225.944H112.429V217.22H104.908V215.659H112.429V203.41H82.3102ZM134.503 221.631V203.46H116.33V239.818H144.584V221.631H134.503ZM148.326 203.41V239.765H178.445V227.503H170.924V225.944H178.445V217.22H170.924V215.659H178.445V203.41H148.326Z" stroke="black" stroke-width="1.94794"/>
<path d="M182.342 239.818H218.699L218.598 202.053L200.414 215.824L182.241 202.053L182.342 239.818ZM222.492 203.41V239.765H252.611V227.503H245.09V225.944H252.611V217.22H245.09V215.659H252.611V203.41H222.492ZM256.512 202.572V239.818H292.869V203.461H274.8V216.864L256.512 202.572ZM321.899 221.682H328.963V203.461H296.194V221.682H303.726V239.869H321.899V221.682Z" stroke="black" stroke-width="1.94794"/>
<path d="M78.8766 234.638C77.5968 235.469 76.1872 235.854 74.716 235.981C71.6417 236.302 68.5036 236.557 65.4315 236.815C64.9829 236.878 64.5343 236.621 64.0219 236.557C64.0879 235.981 64.0879 235.596 64.2154 235.214C65.559 230.347 66.9686 225.481 68.3123 220.55C68.6333 219.528 69.2095 218.822 70.1683 218.439C71.1293 218.054 72.1541 217.606 73.1151 217.157C73.4977 216.966 73.8188 216.581 74.1398 216.39C73.9463 215.301 73.2426 215.301 72.6027 215.11C71.833 214.789 70.8104 215.429 70.1045 214.468C70.8742 211.396 71.7054 208.257 72.4751 205.185C72.6664 204.352 72.8578 203.457 73.1151 202.623C73.3701 201.728 74.1398 201.344 75.1624 201.344C75.9958 201.407 76.4445 201.856 76.6358 202.56C76.9568 203.584 77.1482 204.609 77.4032 205.504C78.4918 205.825 79.0679 205.249 79.5803 204.673C81.3088 202.623 80.6689 200.446 78.1092 199.679C77.4032 199.422 76.572 199.488 75.8045 199.358C75.2921 199.294 74.716 199.166 74.0738 199.039C74.2036 198.399 74.2036 197.95 74.3311 197.438C74.716 195.582 75.2284 193.66 75.5472 191.74C76.0596 189.37 76.4445 186.937 76.7633 184.569C76.8931 183.48 76.3169 182.841 75.3559 182.711C74.3311 182.519 73.6274 182.968 73.3064 183.929C73.1151 184.441 73.0513 185.018 72.9215 185.594C71.7054 190.458 70.4894 195.261 69.2733 200.255C68.121 200.767 67.2237 201.152 66.3925 201.535C62.3572 203.393 58.7089 205.825 55.5071 208.897C54.8034 209.667 54.0359 210.498 53.4575 211.396C52.2414 213.379 52.7538 215.174 54.7396 216.326C55.3795 216.645 56.0195 216.966 56.6594 217.03C58.2603 217.351 59.925 217.542 61.5897 217.733C62.2934 217.797 63.0631 217.606 64.0879 218.054C63.382 218.63 62.9993 219.015 62.5507 219.27C59.7337 221.126 56.9167 222.791 54.2272 224.713C51.8588 226.442 49.552 228.298 47.3771 230.22C46.5436 230.987 45.8399 232.012 45.3276 233.037C44.5601 234.316 44.8152 235.533 45.9675 236.43C46.8647 237.133 47.8873 237.71 48.9758 238.094C51.4102 238.99 53.9061 239.183 56.4681 239.247C57.1718 239.311 58.0052 239.055 58.6451 239.823C58.5176 240.654 58.3241 241.488 58.1328 242.385C57.3631 246.097 56.5318 249.811 55.7006 253.525C55.5071 254.548 55.3795 255.637 55.3157 256.725C55.252 257.431 55.4433 258.071 56.2108 258.326C56.8529 258.517 57.4928 258.198 57.8117 257.365C58.1328 256.342 58.4516 255.318 58.7727 254.293C59.9888 250.066 61.1411 245.842 62.3572 241.615C62.6145 240.848 62.9333 240.014 63.2544 239.247C65.3677 239.055 67.3513 238.99 69.2733 238.734C71.899 238.413 74.4587 238.094 77.0206 237.518C78.3642 237.197 79.5803 236.494 80.7326 235.854C81.1175 235.596 81.245 234.956 81.5661 234.508C80.4776 233.995 79.6441 234.061 78.8766 234.638ZM60.0526 214.98C58.4516 214.661 58.069 213.573 58.7727 212.099C58.964 211.714 59.2213 211.268 59.5402 210.883C61.2049 208.642 64.7916 205.825 67.9274 204.352C67.2875 208.13 66.0076 211.523 64.9829 215.429C63.1269 215.301 61.5897 215.301 60.0526 214.98ZM59.4126 236.685C56.8529 236.878 54.5461 236.621 52.3712 235.854C50.6405 235.277 50.2579 234.189 51.2167 232.652C51.795 231.755 52.435 230.86 53.2024 230.22C56.0194 227.915 58.9002 225.738 61.7173 223.561C61.9108 223.367 62.2296 223.433 62.8058 223.304C61.6535 227.849 60.5649 232.267 59.4126 236.685Z" fill="black"/>
</svg>
