<svg width="663" height="422" viewBox="0 0 663 422" fill="none" xmlns="http://www.w3.org/2000/svg">
<g clip-path="url(#clip0_1_34)">
<path opacity="0.1" d="M592.572 418.384C654.519 418.384 673.392 367.264 655.545 304.659C645.452 269.253 622.113 222.954 583.982 202.002C479.637 144.665 493.7 141.912 467.869 80.8822C425.702 -18.7443 263.559 -22.5888 197.306 48.8012C145.757 104.348 123.696 182.655 53.4634 240.35C-31.312 309.993 -8.18946 419.393 73.2426 419.393L592.572 418.384Z" fill="url(#paint0_linear_1_34)"/>
<path d="M661.941 358.009H8.55241L46.1559 277.019H624.337L661.941 358.009Z" fill="#292A2E"/>
<path d="M661.941 358.009H8.55241L46.1559 277.019H624.337L661.941 358.009Z" fill="white"/>
<path d="M661.941 358.722H8.55598C8.43579 358.722 8.31752 358.692 8.21214 358.634C8.10677 358.576 8.01772 358.493 7.95327 358.391C7.88881 358.29 7.85105 358.173 7.84349 358.053C7.83593 357.933 7.85881 357.813 7.91001 357.705L45.5106 276.716C45.5682 276.593 45.6594 276.49 45.7737 276.417C45.8879 276.344 46.0205 276.306 46.1559 276.306H624.337C624.472 276.306 624.605 276.344 624.719 276.417C624.834 276.49 624.925 276.593 624.983 276.716L662.588 357.705C662.639 357.813 662.662 357.933 662.655 358.052C662.647 358.172 662.61 358.288 662.546 358.389C662.482 358.491 662.394 358.574 662.289 358.632C662.184 358.691 662.066 358.721 661.946 358.722H661.941ZM9.67468 357.295H660.818L623.885 277.733H46.6093L9.67468 357.295Z" fill="#292A2E"/>
<path d="M380.431 249.904H317.155V297.767H380.431V249.904Z" fill="#292A2E"/>
<path opacity="0.64" d="M380.432 249.905H317.155V275.474H380.432V249.905Z" fill="#0C0C0C"/>
<path d="M483.185 60.0129H214.403C210.175 60.0129 206.748 63.4419 206.748 67.6718V255.358C206.748 259.588 210.175 263.017 214.403 263.017H483.185C487.412 263.017 490.839 259.588 490.839 255.358V67.6718C490.839 63.4419 487.412 60.0129 483.185 60.0129Z" fill="#292A2E"/>
<path d="M479.406 68.7126H218.181C216.446 68.7126 215.039 70.1202 215.039 71.8565V227.515C215.039 229.252 216.446 230.659 218.181 230.659H479.406C481.141 230.659 482.548 229.252 482.548 227.515V71.8565C482.548 70.1202 481.141 68.7126 479.406 68.7126Z" fill="white"/>
<path d="M393.596 293.833H303.991C301.698 293.833 299.839 295.693 299.839 297.987C299.839 300.282 301.698 302.142 303.991 302.142H393.596C395.889 302.142 397.748 300.282 397.748 297.987C397.748 295.693 395.889 293.833 393.596 293.833Z" fill="#292A2E"/>
<path d="M304.476 94.5807H292.58C292.509 94.5833 292.438 94.5716 292.372 94.5462C292.305 94.5208 292.245 94.4824 292.194 94.433C292.143 94.3837 292.102 94.3246 292.074 94.2592C292.046 94.1938 292.032 94.1235 292.032 94.0524C292.032 93.9814 292.046 93.9111 292.074 93.8457C292.102 93.7803 292.143 93.7212 292.194 93.6719C292.245 93.6226 292.305 93.5841 292.372 93.5587C292.438 93.5333 292.509 93.5216 292.58 93.5242H304.476C304.613 93.5292 304.742 93.5871 304.837 93.6856C304.932 93.7841 304.985 93.9156 304.985 94.0524C304.985 94.1893 304.932 94.3208 304.837 94.4193C304.742 94.5178 304.613 94.5757 304.476 94.5807Z" fill="#292A2E"/>
<path d="M284 94.5807H279.499C279.428 94.5833 279.357 94.5716 279.291 94.5462C279.225 94.5208 279.164 94.4824 279.113 94.433C279.062 94.3837 279.021 94.3246 278.993 94.2592C278.966 94.1938 278.951 94.1235 278.951 94.0524C278.951 93.9814 278.966 93.9111 278.993 93.8457C279.021 93.7803 279.062 93.7212 279.113 93.6719C279.164 93.6226 279.225 93.5841 279.291 93.5587C279.357 93.5333 279.428 93.5216 279.499 93.5242H284C284.071 93.5216 284.142 93.5333 284.208 93.5587C284.275 93.5841 284.335 93.6226 284.386 93.6719C284.437 93.7212 284.478 93.7803 284.506 93.8457C284.534 93.9111 284.548 93.9814 284.548 94.0524C284.548 94.1235 284.534 94.1938 284.506 94.2592C284.478 94.3246 284.437 94.3837 284.386 94.433C284.335 94.4824 284.275 94.5208 284.208 94.5462C284.142 94.5716 284.071 94.5833 284 94.5807Z" fill="url(#paint1_linear_1_34)"/>
<path d="M284 104.115H279.499C279.359 104.115 279.225 104.059 279.126 103.96C279.026 103.861 278.971 103.727 278.971 103.587C278.971 103.446 279.026 103.312 279.126 103.213C279.225 103.114 279.359 103.058 279.499 103.058H284C284.14 103.058 284.275 103.114 284.374 103.213C284.473 103.312 284.529 103.446 284.529 103.587C284.529 103.727 284.473 103.861 284.374 103.96C284.275 104.059 284.14 104.115 284 104.115Z" fill="url(#paint2_linear_1_34)"/>
<path d="M284 113.65H279.499C279.359 113.65 279.225 113.594 279.126 113.495C279.026 113.396 278.971 113.261 278.971 113.121C278.971 112.981 279.026 112.846 279.126 112.747C279.225 112.648 279.359 112.592 279.499 112.592H284C284.14 112.592 284.275 112.648 284.374 112.747C284.473 112.846 284.529 112.981 284.529 113.121C284.529 113.261 284.473 113.396 284.374 113.495C284.275 113.594 284.14 113.65 284 113.65Z" fill="url(#paint3_linear_1_34)"/>
<path d="M284 123.184H279.499C279.359 123.184 279.225 123.128 279.126 123.029C279.026 122.93 278.971 122.796 278.971 122.655C278.971 122.515 279.026 122.381 279.126 122.282C279.225 122.182 279.359 122.127 279.499 122.127H284C284.14 122.127 284.275 122.182 284.374 122.282C284.473 122.381 284.529 122.515 284.529 122.655C284.529 122.796 284.473 122.93 284.374 123.029C284.275 123.128 284.14 123.184 284 123.184Z" fill="url(#paint4_linear_1_34)"/>
<path d="M284 132.718H279.499C279.428 132.72 279.357 132.709 279.291 132.683C279.225 132.658 279.164 132.619 279.113 132.57C279.062 132.521 279.021 132.462 278.993 132.396C278.966 132.331 278.951 132.26 278.951 132.189C278.951 132.118 278.966 132.048 278.993 131.983C279.021 131.917 279.062 131.858 279.113 131.809C279.164 131.759 279.225 131.721 279.291 131.696C279.357 131.67 279.428 131.659 279.499 131.661H284C284.071 131.659 284.142 131.67 284.208 131.696C284.275 131.721 284.335 131.759 284.386 131.809C284.437 131.858 284.478 131.917 284.506 131.983C284.534 132.048 284.548 132.118 284.548 132.189C284.548 132.26 284.534 132.331 284.506 132.396C284.478 132.462 284.437 132.521 284.386 132.57C284.335 132.619 284.275 132.658 284.208 132.683C284.142 132.709 284.071 132.72 284 132.718Z" fill="url(#paint5_linear_1_34)"/>
<path d="M284 142.249H279.499C279.359 142.249 279.225 142.194 279.126 142.094C279.026 141.995 278.971 141.861 278.971 141.721C278.971 141.58 279.026 141.446 279.126 141.347C279.225 141.248 279.359 141.192 279.499 141.192H284C284.14 141.192 284.275 141.248 284.374 141.347C284.473 141.446 284.529 141.58 284.529 141.721C284.529 141.861 284.473 141.995 284.374 142.094C284.275 142.194 284.14 142.249 284 142.249Z" fill="url(#paint6_linear_1_34)"/>
<path d="M284 151.786H279.499C279.359 151.786 279.225 151.731 279.126 151.632C279.026 151.532 278.971 151.398 278.971 151.258C278.971 151.118 279.026 150.983 279.126 150.884C279.225 150.785 279.359 150.729 279.499 150.729H284C284.14 150.729 284.275 150.785 284.374 150.884C284.473 150.983 284.529 151.118 284.529 151.258C284.529 151.398 284.473 151.532 284.374 151.632C284.275 151.731 284.14 151.786 284 151.786Z" fill="url(#paint7_linear_1_34)"/>
<path d="M284 161.32H279.499C279.428 161.323 279.357 161.311 279.291 161.286C279.225 161.26 279.164 161.222 279.113 161.172C279.062 161.123 279.021 161.064 278.993 160.999C278.966 160.933 278.951 160.863 278.951 160.792C278.951 160.721 278.966 160.65 278.993 160.585C279.021 160.52 279.062 160.461 279.113 160.411C279.164 160.362 279.225 160.323 279.291 160.298C279.357 160.273 279.428 160.261 279.499 160.264H284C284.071 160.261 284.142 160.273 284.208 160.298C284.275 160.323 284.335 160.362 284.386 160.411C284.437 160.461 284.478 160.52 284.506 160.585C284.534 160.65 284.548 160.721 284.548 160.792C284.548 160.863 284.534 160.933 284.506 160.999C284.478 161.064 284.437 161.123 284.386 161.172C284.335 161.222 284.275 161.26 284.208 161.286C284.142 161.311 284.071 161.323 284 161.32Z" fill="url(#paint8_linear_1_34)"/>
<path d="M284 170.856H279.499C279.359 170.856 279.225 170.8 279.126 170.701C279.026 170.602 278.971 170.468 278.971 170.327C278.971 170.187 279.026 170.053 279.126 169.954C279.225 169.854 279.359 169.799 279.499 169.799H284C284.14 169.799 284.275 169.854 284.374 169.954C284.473 170.053 284.529 170.187 284.529 170.327C284.529 170.468 284.473 170.602 284.374 170.701C284.275 170.8 284.14 170.856 284 170.856Z" fill="url(#paint9_linear_1_34)"/>
<path d="M284 180.389H279.499C279.359 180.389 279.225 180.333 279.126 180.234C279.026 180.135 278.971 180.001 278.971 179.86C278.971 179.72 279.026 179.586 279.126 179.487C279.225 179.387 279.359 179.332 279.499 179.332H284C284.14 179.332 284.275 179.387 284.374 179.487C284.473 179.586 284.529 179.72 284.529 179.86C284.529 180.001 284.473 180.135 284.374 180.234C284.275 180.333 284.14 180.389 284 180.389Z" fill="url(#paint10_linear_1_34)"/>
<path d="M284 189.923H279.499C279.428 189.925 279.357 189.914 279.291 189.888C279.225 189.863 279.164 189.824 279.113 189.775C279.062 189.726 279.021 189.667 278.993 189.601C278.966 189.536 278.951 189.465 278.951 189.394C278.951 189.323 278.966 189.253 278.993 189.188C279.021 189.122 279.062 189.063 279.113 189.014C279.164 188.965 279.225 188.926 279.291 188.901C279.357 188.875 279.428 188.864 279.499 188.866H284C284.071 188.864 284.142 188.875 284.208 188.901C284.275 188.926 284.335 188.965 284.386 189.014C284.437 189.063 284.478 189.122 284.506 189.188C284.534 189.253 284.548 189.323 284.548 189.394C284.548 189.465 284.534 189.536 284.506 189.601C284.478 189.667 284.437 189.726 284.386 189.775C284.335 189.824 284.275 189.863 284.208 189.888C284.142 189.914 284.071 189.925 284 189.923Z" fill="url(#paint11_linear_1_34)"/>
<path d="M284 199.457H279.499C279.359 199.457 279.225 199.401 279.126 199.302C279.026 199.203 278.971 199.069 278.971 198.928C278.971 198.788 279.026 198.654 279.126 198.555C279.225 198.456 279.359 198.4 279.499 198.4H284C284.14 198.4 284.275 198.456 284.374 198.555C284.473 198.654 284.529 198.788 284.529 198.928C284.529 199.069 284.473 199.203 284.374 199.302C284.275 199.401 284.14 199.457 284 199.457Z" fill="url(#paint12_linear_1_34)"/>
<path d="M284 208.991H279.499C279.359 208.991 279.225 208.936 279.126 208.837C279.026 208.737 278.971 208.603 278.971 208.463C278.971 208.323 279.026 208.188 279.126 208.089C279.225 207.99 279.359 207.934 279.499 207.934H284C284.14 207.934 284.275 207.99 284.374 208.089C284.473 208.188 284.529 208.323 284.529 208.463C284.529 208.603 284.473 208.737 284.374 208.837C284.275 208.936 284.14 208.991 284 208.991Z" fill="url(#paint13_linear_1_34)"/>
<path d="M284 218.525H279.499C279.428 218.528 279.357 218.516 279.291 218.491C279.225 218.465 279.164 218.427 279.113 218.377C279.062 218.328 279.021 218.269 278.993 218.204C278.966 218.138 278.951 218.068 278.951 217.997C278.951 217.926 278.966 217.856 278.993 217.79C279.021 217.725 279.062 217.666 279.113 217.616C279.164 217.567 279.225 217.528 279.291 217.503C279.357 217.478 279.428 217.466 279.499 217.469H284C284.071 217.466 284.142 217.478 284.208 217.503C284.275 217.528 284.335 217.567 284.386 217.616C284.437 217.666 284.478 217.725 284.506 217.79C284.534 217.856 284.548 217.926 284.548 217.997C284.548 218.068 284.534 218.138 284.506 218.204C284.478 218.269 284.437 218.328 284.386 218.377C284.335 218.427 284.275 218.465 284.208 218.491C284.142 218.516 284.071 218.528 284 218.525Z" fill="url(#paint14_linear_1_34)"/>
<path d="M313.983 104.115H303.146C303.075 104.118 303.004 104.106 302.938 104.081C302.871 104.055 302.811 104.017 302.76 103.967C302.708 103.918 302.668 103.859 302.64 103.794C302.612 103.728 302.598 103.658 302.598 103.587C302.598 103.516 302.612 103.445 302.64 103.38C302.668 103.315 302.708 103.256 302.76 103.206C302.811 103.157 302.871 103.118 302.938 103.093C303.004 103.068 303.075 103.056 303.146 103.059H313.983C314.054 103.056 314.125 103.068 314.191 103.093C314.258 103.118 314.318 103.157 314.369 103.206C314.42 103.256 314.461 103.315 314.489 103.38C314.517 103.445 314.531 103.516 314.531 103.587C314.531 103.658 314.517 103.728 314.489 103.794C314.461 103.859 314.42 103.918 314.369 103.967C314.318 104.017 314.258 104.055 314.191 104.081C314.125 104.106 314.054 104.118 313.983 104.115Z" fill="#292A2E"/>
<path d="M304.476 161.32H292.58C292.509 161.323 292.438 161.311 292.372 161.286C292.305 161.26 292.245 161.222 292.194 161.172C292.143 161.123 292.102 161.064 292.074 160.999C292.046 160.933 292.032 160.863 292.032 160.792C292.032 160.721 292.046 160.651 292.074 160.585C292.102 160.52 292.143 160.461 292.194 160.411C292.245 160.362 292.305 160.323 292.372 160.298C292.438 160.273 292.509 160.261 292.58 160.264H304.476C304.613 160.269 304.742 160.327 304.837 160.425C304.932 160.524 304.985 160.655 304.985 160.792C304.985 160.929 304.932 161.06 304.837 161.159C304.742 161.257 304.613 161.315 304.476 161.32Z" fill="#292A2E"/>
<path d="M313.983 170.856H303.146C303.006 170.856 302.871 170.8 302.772 170.701C302.673 170.602 302.617 170.468 302.617 170.327C302.617 170.187 302.673 170.053 302.772 169.954C302.871 169.854 303.006 169.799 303.146 169.799H313.983C314.123 169.799 314.258 169.854 314.357 169.954C314.456 170.053 314.512 170.187 314.512 170.327C314.512 170.468 314.456 170.602 314.357 170.701C314.258 170.8 314.123 170.856 313.983 170.856Z" fill="#292A2E"/>
<path d="M389.516 113.65H310.539C310.399 113.65 310.264 113.594 310.165 113.495C310.066 113.396 310.01 113.261 310.01 113.121C310.01 112.981 310.066 112.846 310.165 112.747C310.264 112.648 310.399 112.592 310.539 112.592H389.516C389.656 112.592 389.791 112.648 389.89 112.747C389.989 112.846 390.044 112.981 390.044 113.121C390.044 113.261 389.989 113.396 389.89 113.495C389.791 113.594 389.656 113.65 389.516 113.65Z" fill="#292A2E"/>
<path d="M446.654 113.65H400.951C400.811 113.65 400.677 113.594 400.577 113.495C400.478 113.396 400.423 113.261 400.423 113.121C400.423 112.981 400.478 112.846 400.577 112.747C400.677 112.648 400.811 112.592 400.951 112.592H446.654C446.794 112.592 446.929 112.648 447.028 112.747C447.127 112.846 447.183 112.981 447.183 113.121C447.183 113.261 447.127 113.396 447.028 113.495C446.929 113.594 446.794 113.65 446.654 113.65Z" fill="#0CBC8B"/>
<path d="M471.181 113.65H457.174C457.034 113.65 456.899 113.594 456.8 113.495C456.701 113.396 456.645 113.261 456.645 113.121C456.645 112.981 456.701 112.846 456.8 112.747C456.899 112.648 457.034 112.592 457.174 112.592H471.182C471.322 112.592 471.456 112.648 471.556 112.747C471.655 112.846 471.71 112.981 471.71 113.121C471.71 113.261 471.655 113.396 471.556 113.495C471.456 113.594 471.322 113.65 471.182 113.65H471.181Z" fill="#292A2E"/>
<path d="M421.208 132.718H310.539C310.468 132.72 310.397 132.709 310.331 132.683C310.264 132.658 310.204 132.619 310.153 132.57C310.102 132.521 310.061 132.462 310.033 132.396C310.005 132.331 309.991 132.26 309.991 132.189C309.991 132.118 310.005 132.048 310.033 131.983C310.061 131.917 310.102 131.858 310.153 131.809C310.204 131.759 310.264 131.721 310.331 131.696C310.397 131.67 310.468 131.659 310.539 131.661H421.208C421.279 131.659 421.35 131.67 421.416 131.696C421.482 131.721 421.543 131.759 421.594 131.809C421.645 131.858 421.686 131.917 421.714 131.983C421.741 132.048 421.756 132.118 421.756 132.189C421.756 132.26 421.741 132.331 421.714 132.396C421.686 132.462 421.645 132.521 421.594 132.57C421.543 132.619 421.482 132.658 421.416 132.683C421.35 132.709 421.279 132.72 421.208 132.718Z" fill="#292A2E"/>
<path d="M446.654 132.718H432.647C432.576 132.72 432.505 132.709 432.439 132.683C432.372 132.658 432.312 132.619 432.261 132.57C432.209 132.521 432.169 132.462 432.141 132.396C432.113 132.331 432.099 132.26 432.099 132.189C432.099 132.118 432.113 132.048 432.141 131.983C432.169 131.917 432.209 131.858 432.261 131.809C432.312 131.759 432.372 131.721 432.439 131.696C432.505 131.67 432.576 131.659 432.647 131.661H446.656C446.727 131.659 446.797 131.67 446.864 131.696C446.93 131.721 446.99 131.759 447.042 131.809C447.093 131.858 447.133 131.917 447.161 131.983C447.189 132.048 447.203 132.118 447.203 132.189C447.203 132.26 447.189 132.331 447.161 132.396C447.133 132.462 447.093 132.521 447.042 132.57C446.99 132.619 446.93 132.658 446.864 132.683C446.797 132.709 446.727 132.72 446.656 132.718H446.654Z" fill="url(#paint15_linear_1_34)"/>
<path d="M322.435 123.184H310.539C310.399 123.184 310.264 123.128 310.165 123.029C310.066 122.93 310.01 122.796 310.01 122.655C310.01 122.515 310.066 122.381 310.165 122.282C310.264 122.182 310.399 122.127 310.539 122.127H322.435C322.575 122.127 322.71 122.182 322.809 122.282C322.908 122.381 322.963 122.515 322.963 122.655C322.963 122.796 322.908 122.93 322.809 123.029C322.71 123.128 322.575 123.184 322.435 123.184Z" fill="#0CBC8B"/>
<path d="M414.964 123.184H333.872C333.731 123.184 333.597 123.128 333.498 123.029C333.399 122.93 333.343 122.796 333.343 122.655C333.343 122.515 333.399 122.381 333.498 122.282C333.597 122.182 333.731 122.127 333.872 122.127H414.964C415.104 122.127 415.239 122.182 415.338 122.282C415.437 122.381 415.493 122.515 415.493 122.655C415.493 122.796 415.437 122.93 415.338 123.029C415.239 123.128 415.104 123.184 414.964 123.184Z" fill="url(#paint16_linear_1_34)"/>
<path d="M471.273 123.184H427.684C427.544 123.184 427.41 123.128 427.311 123.029C427.212 122.93 427.156 122.796 427.156 122.655C427.156 122.515 427.212 122.381 427.311 122.282C427.41 122.182 427.544 122.127 427.684 122.127H471.273C471.413 122.127 471.547 122.182 471.646 122.282C471.745 122.381 471.801 122.515 471.801 122.655C471.801 122.796 471.745 122.93 471.646 123.029C471.547 123.128 471.413 123.184 471.273 123.184Z" fill="#292A2E"/>
<path d="M389.516 142.249H310.539C310.399 142.249 310.264 142.194 310.165 142.094C310.066 141.995 310.01 141.861 310.01 141.721C310.01 141.58 310.066 141.446 310.165 141.347C310.264 141.248 310.399 141.192 310.539 141.192H389.516C389.656 141.192 389.791 141.248 389.89 141.347C389.989 141.446 390.044 141.58 390.044 141.721C390.044 141.861 389.989 141.995 389.89 142.094C389.791 142.194 389.656 142.249 389.516 142.249Z" fill="#292A2E"/>
<path d="M425.526 142.249H400.953C400.812 142.249 400.678 142.194 400.579 142.094C400.48 141.995 400.424 141.861 400.424 141.721C400.424 141.58 400.48 141.446 400.579 141.347C400.678 141.248 400.812 141.192 400.953 141.192H425.526C425.666 141.192 425.8 141.248 425.9 141.347C425.999 141.446 426.054 141.58 426.054 141.721C426.054 141.861 425.999 141.995 425.9 142.094C425.8 142.194 425.666 142.249 425.526 142.249Z" fill="#0CBC8B"/>
<path d="M471.181 142.249H436.043C435.903 142.249 435.769 142.194 435.67 142.094C435.571 141.995 435.515 141.861 435.515 141.721C435.515 141.58 435.571 141.446 435.67 141.347C435.769 141.248 435.903 141.192 436.043 141.192H471.181C471.321 141.192 471.455 141.248 471.554 141.347C471.653 141.446 471.709 141.58 471.709 141.721C471.709 141.861 471.653 141.995 471.554 142.094C471.455 142.194 471.321 142.249 471.181 142.249Z" fill="#292A2E"/>
<path d="M322.435 151.786H310.539C310.399 151.786 310.264 151.731 310.165 151.632C310.066 151.532 310.01 151.398 310.01 151.258C310.01 151.118 310.066 150.983 310.165 150.884C310.264 150.785 310.399 150.729 310.539 150.729H322.435C322.575 150.729 322.71 150.785 322.809 150.884C322.908 150.983 322.963 151.118 322.963 151.258C322.963 151.398 322.908 151.532 322.809 151.632C322.71 151.731 322.575 151.786 322.435 151.786Z" fill="url(#paint17_linear_1_34)"/>
<path d="M414.964 151.786H333.872C333.731 151.786 333.597 151.731 333.498 151.632C333.399 151.532 333.343 151.398 333.343 151.258C333.343 151.118 333.399 150.983 333.498 150.884C333.597 150.785 333.731 150.729 333.872 150.729H414.964C415.104 150.729 415.239 150.785 415.338 150.884C415.437 150.983 415.493 151.118 415.493 151.258C415.493 151.398 415.437 151.532 415.338 151.632C415.239 151.731 415.104 151.786 414.964 151.786Z" fill="#0CBC8B"/>
<path d="M387.403 189.923H308.426C308.286 189.923 308.152 189.868 308.053 189.769C307.953 189.669 307.898 189.535 307.898 189.395C307.898 189.255 307.953 189.12 308.053 189.021C308.152 188.922 308.286 188.866 308.426 188.866H387.403C387.543 188.866 387.677 188.922 387.776 189.021C387.875 189.12 387.931 189.255 387.931 189.395C387.931 189.535 387.875 189.669 387.776 189.769C387.677 189.868 387.543 189.923 387.403 189.923Z" fill="#292A2E"/>
<path d="M444.542 189.923H398.838C398.698 189.923 398.564 189.868 398.465 189.769C398.366 189.669 398.31 189.535 398.31 189.395C398.31 189.255 398.366 189.12 398.465 189.021C398.564 188.922 398.698 188.866 398.838 188.866H444.542C444.682 188.866 444.816 188.922 444.915 189.021C445.014 189.12 445.07 189.255 445.07 189.395C445.07 189.535 445.014 189.669 444.915 189.769C444.816 189.868 444.682 189.923 444.542 189.923Z" fill="url(#paint18_linear_1_34)"/>
<path d="M341.454 180.389H308.426C308.286 180.389 308.152 180.333 308.053 180.234C307.953 180.135 307.898 180.001 307.898 179.86C307.898 179.72 307.953 179.586 308.053 179.487C308.152 179.387 308.286 179.332 308.426 179.332H341.454C341.594 179.332 341.729 179.387 341.828 179.487C341.927 179.586 341.983 179.72 341.983 179.86C341.983 180.001 341.927 180.135 341.828 180.234C341.729 180.333 341.594 180.389 341.454 180.389Z" fill="#0CBC8B"/>
<path d="M412.849 180.389H352.886C352.746 180.389 352.611 180.333 352.512 180.234C352.413 180.135 352.357 180.001 352.357 179.86C352.357 179.72 352.413 179.586 352.512 179.487C352.611 179.387 352.746 179.332 352.886 179.332H412.849C412.989 179.332 413.123 179.387 413.222 179.487C413.321 179.586 413.377 179.72 413.377 179.86C413.377 180.001 413.321 180.135 413.222 180.234C413.123 180.333 412.989 180.389 412.849 180.389Z" fill="url(#paint19_linear_1_34)"/>
<path d="M469.16 180.389H425.572C425.431 180.389 425.297 180.333 425.198 180.234C425.099 180.135 425.043 180.001 425.043 179.86C425.043 179.72 425.099 179.586 425.198 179.487C425.297 179.387 425.431 179.332 425.572 179.332H469.16C469.3 179.332 469.434 179.387 469.534 179.487C469.633 179.586 469.688 179.72 469.688 179.86C469.688 180.001 469.633 180.135 469.534 180.234C469.434 180.333 469.3 180.389 469.16 180.389Z" fill="#292A2E"/>
<path d="M419.095 208.991H308.426C308.286 208.991 308.152 208.936 308.053 208.837C307.953 208.737 307.898 208.603 307.898 208.463C307.898 208.323 307.953 208.188 308.053 208.089C308.152 207.99 308.286 207.934 308.426 207.934H419.095C419.236 207.934 419.37 207.99 419.469 208.089C419.568 208.188 419.624 208.323 419.624 208.463C419.624 208.603 419.568 208.737 419.469 208.837C419.37 208.936 419.236 208.991 419.095 208.991Z" fill="url(#paint20_linear_1_34)"/>
<path d="M451.672 208.991H430.533C430.393 208.991 430.258 208.936 430.159 208.837C430.06 208.737 430.004 208.603 430.004 208.463C430.004 208.323 430.06 208.188 430.159 208.089C430.258 207.99 430.393 207.934 430.533 207.934H451.672C451.812 207.934 451.946 207.99 452.045 208.089C452.144 208.188 452.2 208.323 452.2 208.463C452.2 208.603 452.144 208.737 452.045 208.837C451.946 208.936 451.812 208.991 451.672 208.991Z" fill="#292A2E"/>
<path d="M320.322 199.457H308.426C308.355 199.46 308.284 199.448 308.218 199.423C308.152 199.397 308.091 199.359 308.04 199.309C307.989 199.26 307.948 199.201 307.92 199.136C307.893 199.07 307.878 199 307.878 198.929C307.878 198.858 307.893 198.787 307.92 198.722C307.948 198.657 307.989 198.598 308.04 198.548C308.091 198.499 308.152 198.46 308.218 198.435C308.284 198.41 308.355 198.398 308.426 198.401H320.322C320.393 198.398 320.464 198.41 320.53 198.435C320.596 198.46 320.657 198.499 320.708 198.548C320.759 198.598 320.8 198.657 320.827 198.722C320.855 198.787 320.87 198.858 320.87 198.929C320.87 199 320.855 199.07 320.827 199.136C320.8 199.201 320.759 199.26 320.708 199.309C320.657 199.359 320.596 199.397 320.53 199.423C320.464 199.448 320.393 199.46 320.322 199.457Z" fill="url(#paint21_linear_1_34)"/>
<path d="M412.849 199.457H331.758C331.687 199.46 331.616 199.448 331.549 199.423C331.483 199.397 331.423 199.359 331.371 199.309C331.32 199.26 331.28 199.201 331.252 199.136C331.224 199.07 331.21 199 331.21 198.929C331.21 198.858 331.224 198.787 331.252 198.722C331.28 198.657 331.32 198.598 331.371 198.548C331.423 198.499 331.483 198.46 331.549 198.435C331.616 198.41 331.687 198.398 331.758 198.401H412.849C412.92 198.398 412.991 198.41 413.057 198.435C413.123 198.46 413.184 198.499 413.235 198.548C413.286 198.598 413.327 198.657 413.354 198.722C413.382 198.787 413.397 198.858 413.397 198.929C413.397 199 413.382 199.07 413.354 199.136C413.327 199.201 413.286 199.26 413.235 199.309C413.184 199.359 413.123 199.397 413.057 199.423C412.991 199.448 412.92 199.46 412.849 199.457Z" fill="#292A2E"/>
<path d="M469.16 199.457H425.572C425.501 199.46 425.43 199.448 425.363 199.423C425.297 199.397 425.237 199.359 425.185 199.309C425.134 199.26 425.094 199.201 425.066 199.136C425.038 199.07 425.024 199 425.024 198.929C425.024 198.858 425.038 198.787 425.066 198.722C425.094 198.657 425.134 198.598 425.185 198.548C425.237 198.499 425.297 198.46 425.363 198.435C425.43 198.41 425.501 198.398 425.572 198.401H469.16C469.231 198.398 469.302 198.41 469.368 198.435C469.434 198.46 469.495 198.499 469.546 198.548C469.597 198.598 469.638 198.657 469.665 198.722C469.693 198.787 469.708 198.858 469.708 198.929C469.708 199 469.693 199.07 469.665 199.136C469.638 199.201 469.597 199.26 469.546 199.309C469.495 199.359 469.434 199.397 469.368 199.423C469.302 199.448 469.231 199.46 469.16 199.457Z" fill="#0CBC8B"/>
<path d="M387.403 218.526H308.426C308.286 218.526 308.152 218.47 308.053 218.371C307.953 218.272 307.898 218.137 307.898 217.997C307.898 217.857 307.953 217.723 308.053 217.623C308.152 217.524 308.286 217.469 308.426 217.469H387.403C387.543 217.469 387.677 217.524 387.776 217.623C387.875 217.723 387.931 217.857 387.931 217.997C387.931 218.137 387.875 218.272 387.776 218.371C387.677 218.47 387.543 218.526 387.403 218.526Z" fill="#0CBC8B"/>
<path d="M423.413 218.526H398.84C398.7 218.526 398.565 218.47 398.466 218.371C398.367 218.272 398.312 218.137 398.312 217.997C398.312 217.857 398.367 217.723 398.466 217.623C398.565 217.524 398.7 217.469 398.84 217.469H423.413C423.553 217.469 423.688 217.524 423.787 217.623C423.886 217.723 423.942 217.857 423.942 217.997C423.942 218.137 423.886 218.272 423.787 218.371C423.688 218.47 423.553 218.526 423.413 218.526Z" fill="#292A2E"/>
<path d="M469.068 218.526H433.93C433.79 218.526 433.656 218.47 433.556 218.371C433.457 218.272 433.402 218.137 433.402 217.997C433.402 217.857 433.457 217.723 433.556 217.623C433.656 217.524 433.79 217.469 433.93 217.469H469.067C469.207 217.469 469.342 217.524 469.441 217.623C469.54 217.723 469.596 217.857 469.596 217.997C469.596 218.137 469.54 218.272 469.441 218.371C469.342 218.47 469.207 218.526 469.067 218.526H469.068Z" fill="url(#paint22_linear_1_34)"/>
<path d="M272.344 223.734C272.274 223.734 272.205 223.72 272.141 223.694C272.077 223.667 272.019 223.628 271.97 223.579C271.921 223.53 271.882 223.472 271.855 223.408C271.829 223.344 271.815 223.275 271.815 223.206V77.9389C271.815 77.7987 271.871 77.6642 271.97 77.5651C272.069 77.4659 272.203 77.4102 272.344 77.4102C272.484 77.4102 272.618 77.4659 272.717 77.5651C272.816 77.6642 272.872 77.7987 272.872 77.9389V223.206C272.872 223.275 272.858 223.344 272.832 223.408C272.805 223.472 272.766 223.53 272.717 223.579C272.668 223.628 272.61 223.667 272.546 223.694C272.482 223.72 272.413 223.734 272.344 223.734Z" fill="#292A2E"/>
<path d="M248.184 84.5398H225.307C225.167 84.5398 225.033 84.4841 224.933 84.385C224.834 84.2858 224.779 84.1514 224.779 84.0112C224.779 83.871 224.834 83.7365 224.933 83.6374C225.033 83.5383 225.167 83.4826 225.307 83.4826H248.181C248.321 83.4826 248.456 83.5383 248.555 83.6374C248.654 83.7365 248.71 83.871 248.71 84.0112C248.71 84.1514 248.654 84.2858 248.555 84.385C248.456 84.4841 248.321 84.5398 248.181 84.5398H248.184Z" fill="#292A2E"/>
<path d="M241.294 94.9638H225.307C225.236 94.9664 225.165 94.9547 225.099 94.9293C225.033 94.9039 224.972 94.8654 224.921 94.8161C224.87 94.7668 224.829 94.7077 224.801 94.6423C224.774 94.5769 224.759 94.5066 224.759 94.4355C224.759 94.3645 224.774 94.2942 224.801 94.2288C224.829 94.1634 224.87 94.1043 224.921 94.0549C224.972 94.0056 225.033 93.9671 225.099 93.9418C225.165 93.9164 225.236 93.9047 225.307 93.9073H241.291C241.428 93.9123 241.557 93.9702 241.652 94.0687C241.747 94.1672 241.8 94.2987 241.8 94.4355C241.8 94.5724 241.747 94.7039 241.652 94.8024C241.557 94.9009 241.428 94.9588 241.291 94.9638H241.294Z" fill="#292A2E"/>
<path d="M255.349 105.389H225.307C225.167 105.389 225.033 105.333 224.933 105.234C224.834 105.135 224.779 105 224.779 104.86C224.779 104.72 224.834 104.585 224.933 104.486C225.033 104.387 225.167 104.331 225.307 104.331H255.346C255.486 104.331 255.621 104.387 255.72 104.486C255.819 104.585 255.875 104.72 255.875 104.86C255.875 105 255.819 105.135 255.72 105.234C255.621 105.333 255.486 105.389 255.346 105.389H255.349Z" fill="#292A2E"/>
<path d="M260.953 115.813H235.874C235.803 115.815 235.733 115.803 235.666 115.778C235.6 115.753 235.539 115.714 235.488 115.665C235.437 115.616 235.397 115.556 235.369 115.491C235.341 115.426 235.327 115.355 235.327 115.284C235.327 115.213 235.341 115.143 235.369 115.078C235.397 115.012 235.437 114.953 235.488 114.904C235.539 114.854 235.6 114.816 235.666 114.79C235.733 114.765 235.803 114.753 235.874 114.756H260.953C261.024 114.753 261.094 114.765 261.161 114.79C261.227 114.816 261.288 114.854 261.339 114.904C261.39 114.953 261.431 115.012 261.458 115.078C261.486 115.143 261.5 115.213 261.5 115.284C261.5 115.355 261.486 115.426 261.458 115.491C261.431 115.556 261.39 115.616 261.339 115.665C261.288 115.714 261.227 115.753 261.161 115.778C261.094 115.803 261.024 115.815 260.953 115.813Z" fill="#292A2E"/>
<path d="M248.827 126.237H235.874C235.734 126.237 235.6 126.182 235.501 126.082C235.402 125.983 235.346 125.849 235.346 125.709C235.346 125.568 235.402 125.434 235.501 125.335C235.6 125.236 235.734 125.18 235.874 125.18H248.827C248.967 125.18 249.101 125.236 249.2 125.335C249.299 125.434 249.355 125.568 249.355 125.709C249.355 125.849 249.299 125.983 249.2 126.082C249.101 126.182 248.967 126.237 248.827 126.237Z" fill="#292A2E"/>
<path d="M258.747 136.662H235.874C235.734 136.662 235.6 136.606 235.501 136.507C235.402 136.408 235.346 136.274 235.346 136.133C235.346 135.993 235.402 135.859 235.501 135.76C235.6 135.66 235.734 135.605 235.874 135.605H258.747C258.887 135.605 259.021 135.66 259.12 135.76C259.219 135.859 259.275 135.993 259.275 136.133C259.275 136.274 259.219 136.408 259.12 136.507C259.021 136.606 258.887 136.662 258.747 136.662Z" fill="#292A2E"/>
<path d="M242.947 147.086H225.307C225.167 147.086 225.033 147.03 224.933 146.931C224.834 146.832 224.779 146.698 224.779 146.557C224.779 146.417 224.834 146.283 224.933 146.184C225.033 146.084 225.167 146.029 225.307 146.029H242.944C243.085 146.029 243.219 146.084 243.318 146.184C243.417 146.283 243.473 146.417 243.473 146.557C243.473 146.698 243.417 146.832 243.318 146.931C243.219 147.03 243.085 147.086 242.944 147.086H242.947Z" fill="#292A2E"/>
<path d="M236.884 157.511H225.307C225.167 157.511 225.033 157.455 224.933 157.356C224.834 157.257 224.779 157.122 224.779 156.982C224.779 156.842 224.834 156.707 224.933 156.608C225.033 156.509 225.167 156.453 225.307 156.453H236.881C237.021 156.453 237.156 156.509 237.255 156.608C237.354 156.707 237.409 156.842 237.409 156.982C237.409 157.122 237.354 157.257 237.255 157.356C237.156 157.455 237.021 157.511 236.881 157.511H236.884Z" fill="#292A2E"/>
<path d="M283.282 82.3041V82.4946L289.885 84.9465C289.979 84.9849 290.06 85.0508 290.116 85.1357C290.172 85.2205 290.202 85.3204 290.201 85.4223V85.6021C290.203 85.6817 290.184 85.7603 290.146 85.8306C290.109 85.9009 290.054 85.9604 289.987 86.0037C289.92 86.0508 289.843 86.0804 289.762 86.0896C289.68 86.0988 289.598 86.0874 289.522 86.0565L282.064 83.1387C281.971 83.1016 281.891 83.0376 281.835 82.9547C281.778 82.8718 281.748 82.7739 281.747 82.6736V82.135C281.746 82.0344 281.776 81.9359 281.833 81.8527C281.89 81.7696 281.971 81.7058 282.064 81.6699L289.522 78.745C289.583 78.724 289.648 78.7132 289.712 78.7129C289.81 78.715 289.905 78.7444 289.987 78.7978C290.055 78.8432 290.109 78.9047 290.147 78.9767C290.184 79.0487 290.203 79.129 290.201 79.2101V79.3892C290.203 79.49 290.174 79.5891 290.117 79.6725C290.061 79.7558 289.979 79.8194 289.885 79.8543L283.282 82.3041Z" fill="url(#paint23_linear_1_34)"/>
<path d="M296.371 76.5856L292.42 88.6882C292.388 88.7893 292.325 88.8776 292.239 88.9404C292.154 89.0031 292.051 89.0369 291.945 89.037C291.868 89.0382 291.792 89.0205 291.724 88.9854C291.655 88.9503 291.597 88.899 291.553 88.8358C291.506 88.7733 291.474 88.7007 291.459 88.6238C291.445 88.5468 291.448 88.4676 291.469 88.3921L295.42 76.3002C295.454 76.1977 295.519 76.1084 295.606 76.0445C295.693 75.9806 295.798 75.9453 295.906 75.9435C295.982 75.9434 296.058 75.9616 296.126 75.9966C296.194 76.0316 296.252 76.0824 296.297 76.1447C296.343 76.2068 296.375 76.2793 296.388 76.3561C296.4 76.4328 296.395 76.5115 296.371 76.5856Z" fill="url(#paint24_linear_1_34)"/>
<path d="M306.073 82.135V82.6736C306.074 82.7729 306.046 82.8704 305.991 82.9534C305.937 83.0363 305.858 83.1009 305.767 83.1388L298.297 86.0565C298.223 86.0871 298.143 86.0984 298.063 86.0891C297.984 86.0799 297.908 86.0505 297.843 86.0037C297.776 85.9606 297.72 85.9012 297.681 85.8311C297.643 85.7609 297.622 85.6822 297.621 85.6021V85.4223C297.62 85.3188 297.651 85.2173 297.71 85.1321C297.768 85.0468 297.852 84.982 297.949 84.9465L304.552 82.4946V82.3041L297.949 79.8515C297.852 79.8193 297.768 79.7567 297.709 79.673C297.65 79.5893 297.619 79.4888 297.621 79.3863V79.2073C297.622 79.1257 297.642 79.0454 297.681 78.9735C297.72 78.9016 297.775 78.8403 297.843 78.7949C297.925 78.7417 298.02 78.7123 298.118 78.7101C298.179 78.7094 298.24 78.7203 298.297 78.7422L305.767 81.667C305.86 81.7039 305.939 81.7687 305.994 81.8525C306.049 81.9363 306.076 82.035 306.073 82.135Z" fill="url(#paint25_linear_1_34)"/>
<path d="M34.7536 419.594C30.4463 419.593 26.2028 418.551 22.3845 416.557C18.5661 414.562 15.2858 411.674 12.8229 408.139C10.3599 404.603 8.78707 400.525 8.23832 396.25C7.68957 391.975 8.18111 387.631 9.67112 383.588C11.1834 379.482 49.9733 279.296 56.7289 261.884L103.409 289.064C99.6128 298.855 85.8563 335.966 74.8048 365.861L93.1652 363.863L98.9405 412.774L37.6463 419.438C36.6856 419.542 35.72 419.594 34.7536 419.594Z" fill="url(#paint26_linear_1_34)"/>
<path d="M187.438 241.053C187.274 241.032 182.783 257.946 147.724 255.314C123.454 253.495 117.536 236.965 116.98 236.965C119.597 236.409 123.846 235.831 125.008 235.211C128.83 233.156 131.614 230.655 133.015 225.287C134.111 221.09 134.669 204.93 134.669 196.823L172.016 205.22C171.496 214.365 167.852 235.567 180.622 239.32C182.747 239.937 185.036 240.507 187.438 241.053Z" fill="#E98862"/>
<path d="M170.724 223.196C156.001 224.359 137.088 218.139 133.495 198.485L130.254 180.752C126.661 161.098 134.066 143.278 152.561 139.894C171.056 136.509 187.793 149.912 191.385 169.565L192.82 177.417C194.198 184.957 196.993 221.123 170.724 223.196Z" fill="#E98862"/>
<path d="M101.032 239.683C87.8013 240.665 74.3107 242.098 64.5755 251.116C52.8509 261.977 50.7262 275.331 58.2062 312.08C64.6418 343.701 62.0885 357.518 66.3943 415.868C66.5212 417.586 66.7929 421.142 66.7929 421.142L208.323 420.907C208.323 420.907 221.585 343.493 228.906 307.787C234.474 280.642 249.099 247.688 187.436 241.047C187.276 241.03 137.822 236.952 101.032 239.683Z" fill="url(#paint27_linear_1_34)"/>
<path d="M66.7957 421.499C66.7035 421.499 66.6148 421.464 66.5483 421.4C66.4818 421.336 66.4427 421.248 66.4392 421.156L62.0037 305.962C62.0019 305.915 62.0093 305.868 62.0256 305.824C62.0418 305.78 62.0666 305.74 62.0984 305.706C62.1303 305.671 62.1686 305.644 62.2112 305.624C62.2538 305.605 62.2998 305.594 62.3466 305.592C62.3939 305.588 62.4414 305.594 62.4862 305.61C62.531 305.625 62.5721 305.65 62.6068 305.682C62.6416 305.714 62.6693 305.754 62.6882 305.797C62.7071 305.841 62.7168 305.887 62.7167 305.935L67.1522 421.129C67.1557 421.223 67.1215 421.315 67.0572 421.385C66.9929 421.454 66.9037 421.495 66.8093 421.498L66.7957 421.499Z" fill="#0C0C0C"/>
<path d="M293.897 280.812L303.841 258.495C304.059 258.005 304.377 257.566 304.775 257.205C305.172 256.845 305.641 256.571 306.15 256.401C306.659 256.232 307.198 256.17 307.732 256.22C308.266 256.27 308.784 256.431 309.253 256.693C310.103 257.202 310.735 258.01 311.024 258.959C311.313 259.908 311.24 260.931 310.818 261.829L308.686 266.615L322.294 254.645C323.783 253.29 326.479 252.577 327.891 254.349C328.479 254.995 328.83 255.822 328.888 256.694C328.945 257.566 328.706 258.432 328.208 259.15C328.225 259.161 328.24 259.173 328.253 259.187C328.262 259.2 328.269 259.213 328.276 259.226L330.573 257.134C330.999 256.746 331.506 256.459 332.056 256.292C332.607 256.126 333.188 256.084 333.757 256.171C334.326 256.257 334.868 256.47 335.345 256.792C335.821 257.115 336.22 257.54 336.511 258.037C336.954 258.828 337.113 259.747 336.96 260.641C336.806 261.535 336.351 262.349 335.67 262.947L334.692 263.838C334.704 263.878 334.71 263.92 334.708 263.962C335.508 263.514 336.441 263.365 337.341 263.542C338.241 263.719 339.048 264.211 339.619 264.929C340.22 265.733 340.497 266.734 340.393 267.733C340.289 268.732 339.812 269.655 339.058 270.318L336.63 272.529C336.687 272.522 336.744 272.529 336.797 272.548C336.85 272.568 336.898 272.599 336.937 272.641C336.98 272.693 337.007 272.756 337.015 272.823C337.839 272.622 338.705 272.697 339.482 273.036C340.258 273.376 340.902 273.961 341.314 274.702C341.731 275.49 341.869 276.395 341.708 277.271C341.546 278.148 341.094 278.944 340.423 279.53L319.935 298.193C317.069 300.804 313.489 302.499 309.653 303.061C305.818 303.622 301.902 303.025 298.409 301.346C295.396 299.898 293.066 297.332 291.914 294.193C290.762 291.053 290.879 287.588 292.24 284.534L293.897 280.812Z" fill="#E98862"/>
<g opacity="0.2">
<path d="M314.794 271.062C314.857 271.131 314.945 271.172 315.038 271.177C315.132 271.182 315.223 271.15 315.293 271.087L328.22 259.688C328.291 259.626 328.335 259.537 328.341 259.443C328.346 259.348 328.315 259.255 328.252 259.184C328.19 259.113 328.101 259.07 328.007 259.064C327.912 259.058 327.819 259.09 327.748 259.153L314.822 270.552C314.787 270.583 314.758 270.62 314.737 270.662C314.717 270.704 314.704 270.75 314.701 270.797C314.698 270.844 314.705 270.891 314.72 270.935C314.735 270.979 314.759 271.02 314.79 271.055L314.794 271.062Z" fill="#0C0C0C"/>
</g>
<g opacity="0.2">
<path d="M319.662 276.904C319.725 276.973 319.812 277.015 319.906 277.019C319.999 277.024 320.091 276.992 320.161 276.93L334.587 264.209C334.623 264.178 334.651 264.14 334.672 264.098C334.692 264.056 334.704 264.01 334.707 263.964C334.71 263.917 334.704 263.87 334.689 263.826C334.674 263.781 334.65 263.74 334.619 263.705C334.555 263.637 334.467 263.596 334.373 263.59C334.28 263.584 334.188 263.614 334.115 263.673L319.689 276.395C319.653 276.426 319.625 276.464 319.604 276.506C319.584 276.548 319.572 276.594 319.569 276.64C319.566 276.687 319.572 276.734 319.587 276.778C319.602 276.823 319.626 276.864 319.657 276.899L319.662 276.904Z" fill="#0C0C0C"/>
</g>
<g opacity="0.2">
<path d="M324.897 283.264C324.96 283.332 325.048 283.374 325.141 283.379C325.235 283.383 325.326 283.351 325.396 283.289L336.904 273.141C336.975 273.079 337.018 272.99 337.024 272.896C337.03 272.802 336.998 272.709 336.935 272.638C336.873 272.567 336.785 272.524 336.69 272.518C336.596 272.512 336.503 272.544 336.432 272.606L324.924 282.754C324.889 282.785 324.86 282.823 324.84 282.865C324.819 282.907 324.807 282.953 324.804 282.999C324.801 283.046 324.808 283.093 324.823 283.137C324.838 283.182 324.862 283.223 324.893 283.258L324.897 283.264Z" fill="#0C0C0C"/>
</g>
<path d="M184.372 203.053C181.837 190.306 180.674 181.802 180.808 172.831C184.378 166.563 183.44 159.37 182.628 156.261C183.651 156.844 184.722 157.34 185.828 157.743C186.343 157.922 186.898 157.951 187.428 157.825C187.958 157.699 188.442 157.425 188.821 157.034C189.201 156.643 189.461 156.152 189.571 155.618C189.682 155.084 189.637 154.53 189.443 154.02C186.68 146.861 179.576 132.948 164.912 128.286C161.221 126.849 151.793 125.033 139.282 126.75C128.638 128.211 104.54 138.314 100.792 167.868V167.884C100.668 168.864 96.0101 193.954 90.9877 207.019C84.2363 224.582 74.7571 230.039 74.9973 250.302C75.3068 276.368 123.196 279.836 152.087 277.887C180.977 275.938 197.099 266.434 197.308 247.65C197.535 226.601 189.443 228.555 184.372 203.053Z" fill="#0A0A0A"/>
<path d="M184.381 194.015C178.761 195.043 173.104 189.861 172.077 184.237C171.049 178.613 173.611 172.831 180.807 172.831L184.381 194.015Z" fill="#E98862"/>
<path d="M244.837 415.547C239.183 415.547 233.675 413.754 229.104 410.426C224.532 407.098 221.131 402.407 219.39 397.025L182.242 282.073L233.123 265.612L252.659 326.075L286.422 272.353L331.693 300.835L267.465 403.035C265.058 406.864 261.72 410.021 257.763 412.209C253.806 414.397 249.358 415.546 244.837 415.547Z" fill="url(#paint28_linear_1_34)"/>
<path d="M214.861 383.806C214.839 383.806 214.817 383.804 214.795 383.8C214.702 383.783 214.62 383.729 214.567 383.651C214.513 383.573 214.493 383.477 214.51 383.384L227.138 314.799C227.147 314.753 227.164 314.709 227.189 314.669C227.215 314.63 227.248 314.596 227.286 314.569C227.325 314.543 227.368 314.524 227.414 314.514C227.46 314.505 227.507 314.504 227.553 314.512C227.599 314.521 227.643 314.538 227.683 314.564C227.722 314.589 227.756 314.622 227.783 314.661C227.809 314.699 227.828 314.743 227.838 314.789C227.847 314.834 227.848 314.882 227.84 314.928L215.211 383.516C215.195 383.598 215.152 383.671 215.088 383.724C215.024 383.777 214.944 383.806 214.861 383.806Z" fill="#0C0C0C"/>
<path d="M257.204 342.262C257.125 342.262 257.048 342.236 256.986 342.188C256.923 342.139 256.879 342.072 256.859 341.995L252.652 325.783C252.628 325.691 252.642 325.594 252.69 325.512C252.738 325.431 252.816 325.372 252.908 325.348C252.999 325.324 253.096 325.338 253.178 325.386C253.259 325.434 253.318 325.512 253.342 325.604L257.549 341.816C257.562 341.869 257.564 341.924 257.553 341.977C257.542 342.031 257.519 342.081 257.485 342.124C257.452 342.167 257.409 342.202 257.36 342.226C257.311 342.25 257.257 342.262 257.203 342.262H257.204Z" fill="#0C0C0C"/>
<path d="M543.39 339.543H403.995C403.123 339.543 402.26 339.358 401.465 339C400.669 338.642 399.958 338.12 399.379 337.467C398.801 336.814 398.366 336.046 398.106 335.213C397.845 334.38 397.764 333.501 397.868 332.635L401.598 301.494C401.777 299.995 402.5 298.613 403.629 297.611C404.758 296.609 406.215 296.055 407.725 296.055H543.39C545.026 296.055 546.596 296.706 547.753 297.864C548.91 299.021 549.56 300.592 549.56 302.229V333.37C549.56 335.008 548.91 336.578 547.753 337.735C546.596 338.893 545.026 339.543 543.39 339.543Z" fill="#292A2E"/>
<path d="M441.702 339.836L447.663 316.947C447.794 316.444 447.819 315.919 447.737 315.406C447.654 314.892 447.465 314.402 447.183 313.966C446.9 313.529 446.53 313.157 446.095 312.872C445.661 312.587 445.172 312.395 444.659 312.31C440.418 311.508 439.901 317.355 439.098 320.157L436.037 302.877C435.57 298.215 429.307 298.063 428.843 302.707C428.81 302.701 428.776 302.707 428.747 302.723C428.894 294.234 419.501 294.891 421.109 302.331C421.075 302.354 421.045 302.382 421.021 302.415C419.453 298.3 413.023 300.225 413.891 304.59L414.39 307.729C414.36 307.697 414.324 307.672 414.284 307.654C414.245 307.637 414.202 307.627 414.158 307.626C414.114 307.625 414.071 307.633 414.03 307.649C413.99 307.664 413.953 307.688 413.921 307.718C411.764 304.663 406.477 306.904 407.29 310.73L411.51 337.233C413.923 354.374 439.135 360.126 441.702 339.836Z" fill="#E98862"/>
<g opacity="0.2">
<path d="M431.791 319.824C430.864 319.737 428.882 303.609 428.511 303.105C428.495 303.015 428.516 302.922 428.569 302.847C428.621 302.772 428.702 302.721 428.792 302.705C428.882 302.689 428.975 302.71 429.05 302.763C429.125 302.815 429.176 302.896 429.191 302.986L432.076 319.423C432.084 319.468 432.083 319.514 432.073 319.559C432.063 319.604 432.044 319.646 432.017 319.683C431.991 319.72 431.957 319.752 431.918 319.776C431.88 319.8 431.836 319.817 431.791 319.824Z" fill="#0C0C0C"/>
</g>
<g opacity="0.2">
<path d="M424.578 321.299C424.488 321.313 424.397 321.29 424.323 321.237C424.25 321.183 424.201 321.103 424.186 321.014L420.961 302.67C420.946 302.58 420.966 302.487 421.019 302.412C421.071 302.337 421.151 302.286 421.241 302.27C422.188 302.183 424.489 320.509 424.866 320.895C424.875 320.94 424.874 320.987 424.864 321.032C424.854 321.078 424.835 321.12 424.808 321.158C424.781 321.196 424.746 321.228 424.707 321.252C424.667 321.276 424.623 321.292 424.578 321.299Z" fill="#0C0C0C"/>
</g>
<g opacity="0.2">
<path d="M416.777 322.942C416.688 322.955 416.596 322.933 416.523 322.88C416.45 322.826 416.401 322.746 416.386 322.657L413.813 308.024C413.801 307.935 413.823 307.845 413.876 307.772C413.928 307.699 414.007 307.65 414.096 307.635C414.184 307.619 414.275 307.639 414.349 307.689C414.423 307.74 414.475 307.817 414.493 307.905L417.066 322.537C417.075 322.583 417.074 322.629 417.064 322.675C417.053 322.72 417.034 322.763 417.007 322.801C416.981 322.838 416.946 322.87 416.907 322.895C416.867 322.919 416.823 322.935 416.777 322.942Z" fill="#0C0C0C"/>
</g>
<path d="M229.799 421.499H64.0935L53.5625 340.544C53.3512 338.92 53.4886 337.269 53.9655 335.702C54.4425 334.135 55.248 332.688 56.3284 331.457C57.4087 330.226 58.739 329.24 60.2305 328.564C61.722 327.889 63.3404 327.539 64.9776 327.539H207.456C210.252 327.538 212.954 328.556 215.055 330.402C217.157 332.248 218.516 334.795 218.878 337.57L229.799 421.499Z" fill="white"/>
<path d="M219.741 337.462C219.347 334.479 217.885 331.74 215.625 329.754C213.366 327.767 210.463 326.669 207.456 326.662H64.9776C63.4125 326.663 61.8617 326.961 60.4073 327.539C59.792 327.781 59.1981 328.075 58.6319 328.417C56.5561 329.655 54.8877 331.473 53.8324 333.649C52.7771 335.824 52.3809 338.261 52.6926 340.658L63.2165 421.499H64.9776L54.4324 340.438C54.2368 338.937 54.3634 337.411 54.8038 335.963C55.2442 334.515 55.9882 333.177 56.9862 332.04C57.9842 330.902 59.2132 329.99 60.5912 329.366C61.9693 328.741 63.4647 328.417 64.9776 328.417H207.456C210.037 328.423 212.529 329.366 214.469 331.07C216.409 332.774 217.667 335.123 218.008 337.683L228.917 421.499H230.685L219.741 337.462Z" fill="#292A2E"/>
<path d="M220.133 421.499H54.4252L43.8943 340.544C43.6826 338.92 43.8197 337.269 44.2966 335.702C44.7734 334.134 45.5789 332.687 46.6593 331.456C47.7397 330.225 49.0702 329.239 50.5618 328.564C52.0535 327.888 53.672 327.539 55.3093 327.539H197.785C200.581 327.539 203.281 328.557 205.382 330.403C207.482 332.249 208.839 334.796 209.2 337.57L220.133 421.499Z" fill="#292A2E"/>
<path d="M210.072 337.462C209.829 335.603 209.167 333.823 208.137 332.256C207.108 330.69 205.736 329.377 204.126 328.417C203.559 328.076 202.965 327.783 202.351 327.539C200.899 326.96 199.35 326.663 197.788 326.662H55.3093C53.5471 326.661 51.8049 327.036 50.1993 327.763C48.5937 328.49 47.1616 329.551 45.9988 330.876C44.8359 332.201 43.9691 333.759 43.4561 335.446C42.9432 337.133 42.796 338.91 43.0244 340.658L53.5411 421.499H55.3093L44.7641 340.438C44.5685 338.937 44.6952 337.411 45.1355 335.963C45.5759 334.515 46.3199 333.177 47.3179 332.04C48.3159 330.902 49.545 329.99 50.923 329.366C52.3011 328.741 53.7964 328.417 55.3093 328.417H197.785C200.367 328.423 202.858 329.366 204.799 331.07C206.739 332.774 207.996 335.123 208.338 337.683L219.247 421.499H221.015L210.072 337.462Z" fill="#292A2E"/>
<path d="M501.402 244.587C501.566 244.565 503.38 274.685 538.351 272.059C562.561 270.244 571.193 244.545 571.748 244.545C569.138 243.989 564.742 243.182 563.583 242.563C559.77 240.514 554.34 238.381 553.112 230.974C552.404 226.704 553.605 204.864 553.235 200.544L516.786 208.842C517.305 217.966 520.94 239.115 508.201 242.857C506.085 243.479 503.799 244.049 501.402 244.587Z" fill="#E98862"/>
<path d="M517.811 223.072C532.488 224.205 551.328 217.974 554.875 198.379L558.076 180.699C561.623 161.103 554.212 143.355 535.772 140.013C517.333 136.671 500.675 150.059 497.128 169.653L495.711 177.48C495.271 180.177 495.016 182.899 494.946 185.63C494.709 192.846 494.376 203.822 497.941 211.883C501.313 219.497 508.438 222.347 517.811 223.072Z" fill="#E98862"/>
<path d="M550.724 139.009C544.898 137.191 538.855 136.163 532.756 135.951C532.165 133.622 530.848 131.813 528.912 131.054C525.688 129.793 521.748 131.824 519.128 135.735C517.672 133.501 515.697 131.488 513.081 130.67C505.862 128.421 505.504 138.796 505.504 138.796C505.504 138.796 494.058 127.496 493.7 141.909C493.268 159.348 496.469 164.462 498.806 165.753C503.421 168.303 506.857 167.872 508.683 171.623C514.213 182.982 508.793 214.978 515.192 218.985C524.996 225.12 545.076 225.334 551.599 224.867C554.106 224.687 556.454 221.779 557.51 219.495C560.921 212.125 568.529 195.414 570.646 188.504C574.553 175.753 574.259 146.698 550.724 139.009Z" fill="#0C0C0C"/>
<path d="M510.811 207.557C516.472 206.942 520.404 200.383 519.79 194.716C519.175 189.049 514.247 186.426 508.585 187.041L506.08 191.153L505.943 208.083L510.811 207.557Z" fill="#E98862"/>
<path d="M605.384 416.775L605.559 416.785C605.559 416.785 605.433 413.403 605.384 416.775Z" fill="#333333"/>
<path d="M451.128 311.231C452.234 324.224 457.611 405.283 458.673 421.286H605.136C605.963 406.852 609.678 343.741 612.815 315.512C615.81 288.578 621.686 275.093 617.378 267.13C610.34 254.117 591.108 246.596 577.995 244.82C569.986 243.736 568.336 242.958 565.072 242.958H508.681C503.319 242.958 469.075 248.127 462.056 253.291C442.629 267.585 448.782 283.698 451.128 311.231Z" fill="url(#paint29_linear_1_34)"/>
<path d="M636.407 420.437C640.715 420.437 644.959 419.395 648.778 417.401C652.597 415.407 655.878 412.518 658.342 408.982C660.805 405.446 662.378 401.367 662.927 397.091C663.475 392.816 662.983 388.471 661.492 384.427C659.979 380.322 624.506 286.337 617.754 268.92L567.749 289.192C571.546 298.984 585.304 336.098 596.356 365.996L577.994 363.998L572.214 417.193L633.514 420.279C634.474 420.384 635.44 420.437 636.407 420.437Z" fill="url(#paint30_linear_1_34)"/>
<path d="M607.869 316.058L604.271 421.273L605.244 421.306L608.843 316.091L607.869 316.058Z" fill="#0C0C0C"/>
<path d="M429.942 420.437C425.634 420.437 421.39 419.395 417.571 417.401C413.752 415.406 410.471 412.518 408.008 408.982C405.545 405.446 403.972 401.366 403.423 397.091C402.875 392.816 403.367 388.471 404.858 384.427C406.37 380.322 443.329 285.921 450.082 268.506L498.6 289.195C494.804 298.986 481.046 336.101 469.993 365.998L488.355 364L494.135 417.195L432.836 420.281C431.875 420.386 430.909 420.438 429.942 420.437Z" fill="url(#paint31_linear_1_34)"/>
<path d="M469.879 359.761C469.795 359.761 469.712 359.741 469.637 359.703C469.562 359.665 469.497 359.61 469.447 359.542C469.397 359.474 469.365 359.395 469.351 359.312C469.338 359.229 469.344 359.144 469.37 359.064L482.351 318.17C482.371 318.101 482.404 318.037 482.449 317.982C482.494 317.926 482.549 317.88 482.612 317.846C482.676 317.812 482.745 317.791 482.816 317.785C482.887 317.778 482.959 317.786 483.027 317.808C483.095 317.829 483.158 317.864 483.213 317.911C483.267 317.957 483.311 318.014 483.343 318.078C483.375 318.142 483.394 318.212 483.399 318.284C483.403 318.355 483.394 318.427 483.37 318.494L470.388 359.383C470.355 359.492 470.287 359.588 470.195 359.656C470.104 359.724 469.993 359.76 469.879 359.761Z" fill="#0C0C0C"/>
<path d="M636.236 340.544L625.698 421.499H459.997L470.921 337.57C471.282 334.797 472.64 332.249 474.74 330.404C476.841 328.558 479.541 327.54 482.336 327.539H624.814C626.452 327.538 628.071 327.887 629.563 328.562C631.056 329.237 632.387 330.223 633.468 331.454C634.549 332.685 635.355 334.133 635.832 335.7C636.31 337.268 636.447 338.919 636.236 340.544Z" fill="white"/>
<path d="M634.125 330.878C633.274 329.908 632.275 329.078 631.167 328.417C630.598 328.075 630.002 327.781 629.385 327.539C627.93 326.961 626.379 326.663 624.814 326.662H482.336C479.329 326.67 476.427 327.769 474.167 329.755C471.908 331.741 470.446 334.479 470.051 337.462L459.113 421.499H460.881L471.79 337.683C472.129 335.123 473.385 332.773 475.324 331.069C477.264 329.365 479.755 328.423 482.336 328.417H624.814C626.327 328.418 627.823 328.742 629.201 329.367C630.579 329.992 631.808 330.903 632.806 332.041C633.805 333.178 634.549 334.515 634.991 335.963C635.432 337.411 635.56 338.937 635.367 340.438L624.814 421.499H626.582L637.099 340.658C637.327 338.91 637.18 337.134 636.667 335.447C636.154 333.76 635.288 332.203 634.125 330.878Z" fill="#292A2E"/>
<path d="M645.904 340.544L635.367 421.499H469.665L480.589 337.57C480.851 335.563 481.636 333.66 482.867 332.053C484.097 330.446 485.729 329.192 487.598 328.417C488.994 327.834 490.492 327.536 492.004 327.539H634.489C636.126 327.54 637.744 327.889 639.236 328.565C640.727 329.241 642.057 330.227 643.137 331.458C644.218 332.688 645.023 334.135 645.5 335.702C645.977 337.269 646.115 338.92 645.904 340.544Z" fill="#292A2E"/>
<path d="M643.794 330.878C642.631 329.554 641.199 328.494 639.595 327.767C637.991 327.04 636.25 326.663 634.489 326.662H492.004C489.774 326.665 487.586 327.271 485.672 328.417C484.061 329.376 482.689 330.689 481.658 332.256C480.627 333.822 479.964 335.603 479.719 337.462L468.782 421.499H470.55L481.458 337.683C481.797 335.123 483.053 332.773 484.992 331.069C486.931 329.365 489.423 328.422 492.004 328.417H634.489C636.002 328.417 637.497 328.741 638.875 329.365C640.254 329.99 641.483 330.902 642.481 332.039C643.479 333.177 644.223 334.515 644.663 335.963C645.103 337.411 645.23 338.937 645.034 340.438L634.489 421.499H636.25L646.775 340.658C647 338.91 646.851 337.133 646.337 335.447C645.823 333.76 644.956 332.203 643.794 330.878Z" fill="#292A2E"/>
<path d="M8.52033 422H659.785C659.918 422 660.045 421.947 660.138 421.854C660.232 421.76 660.284 421.633 660.284 421.501C660.284 421.368 660.232 421.241 660.138 421.148C660.045 421.054 659.918 421.001 659.785 421.001H8.52033C8.38797 421.001 8.26102 421.054 8.16742 421.148C8.07382 421.241 8.02124 421.368 8.02124 421.501C8.02124 421.633 8.07382 421.76 8.16742 421.854C8.26102 421.947 8.38797 422 8.52033 422Z" fill="#292A2E"/>
<g opacity="0.65">
<path d="M8.52033 422H659.785C659.918 422 660.045 421.947 660.138 421.854C660.232 421.76 660.284 421.633 660.284 421.501C660.284 421.368 660.232 421.241 660.138 421.148C660.045 421.054 659.918 421.001 659.785 421.001H8.52033C8.38797 421.001 8.26102 421.054 8.16742 421.148C8.07382 421.241 8.02124 421.368 8.02124 421.501C8.02124 421.633 8.07382 421.76 8.16742 421.854C8.26102 421.947 8.38797 422 8.52033 422Z" fill="#292A2E"/>
</g>
<path d="M403.206 394.117L405.499 333.799L437.174 332.122L440.056 394.117H403.206Z" fill="url(#paint32_linear_1_34)"/>
</g>
<defs>
<linearGradient id="paint0_linear_1_34" x1="330.981" y1="0" x2="330.981" y2="419.393" gradientUnits="userSpaceOnUse">
<stop stop-color="#0F76B0"/>
<stop offset="1" stop-color="#0F76B0" stop-opacity="0"/>
</linearGradient>
<linearGradient id="paint1_linear_1_34" x1="281.75" y1="93.5238" x2="281.75" y2="94.5811" gradientUnits="userSpaceOnUse">
<stop stop-color="#0F76B0"/>
<stop offset="1" stop-color="#042436"/>
</linearGradient>
<linearGradient id="paint2_linear_1_34" x1="281.75" y1="103.058" x2="281.75" y2="104.115" gradientUnits="userSpaceOnUse">
<stop stop-color="#0F76B0"/>
<stop offset="1" stop-color="#042436"/>
</linearGradient>
<linearGradient id="paint3_linear_1_34" x1="281.75" y1="112.592" x2="281.75" y2="113.65" gradientUnits="userSpaceOnUse">
<stop stop-color="#0F76B0"/>
<stop offset="1" stop-color="#042436"/>
</linearGradient>
<linearGradient id="paint4_linear_1_34" x1="281.75" y1="122.127" x2="281.75" y2="123.184" gradientUnits="userSpaceOnUse">
<stop stop-color="#0F76B0"/>
<stop offset="1" stop-color="#042436"/>
</linearGradient>
<linearGradient id="paint5_linear_1_34" x1="281.75" y1="131.661" x2="281.75" y2="132.718" gradientUnits="userSpaceOnUse">
<stop stop-color="#0F76B0"/>
<stop offset="1" stop-color="#042436"/>
</linearGradient>
<linearGradient id="paint6_linear_1_34" x1="281.75" y1="141.192" x2="281.75" y2="142.249" gradientUnits="userSpaceOnUse">
<stop stop-color="#0F76B0"/>
<stop offset="1" stop-color="#042436"/>
</linearGradient>
<linearGradient id="paint7_linear_1_34" x1="281.75" y1="150.729" x2="281.75" y2="151.786" gradientUnits="userSpaceOnUse">
<stop stop-color="#0F76B0"/>
<stop offset="1" stop-color="#042436"/>
</linearGradient>
<linearGradient id="paint8_linear_1_34" x1="281.75" y1="160.263" x2="281.75" y2="161.32" gradientUnits="userSpaceOnUse">
<stop stop-color="#0F76B0"/>
<stop offset="1" stop-color="#042436"/>
</linearGradient>
<linearGradient id="paint9_linear_1_34" x1="281.75" y1="169.799" x2="281.75" y2="170.856" gradientUnits="userSpaceOnUse">
<stop stop-color="#0F76B0"/>
<stop offset="1" stop-color="#042436"/>
</linearGradient>
<linearGradient id="paint10_linear_1_34" x1="281.75" y1="179.332" x2="281.75" y2="180.389" gradientUnits="userSpaceOnUse">
<stop stop-color="#0F76B0"/>
<stop offset="1" stop-color="#042436"/>
</linearGradient>
<linearGradient id="paint11_linear_1_34" x1="281.75" y1="188.866" x2="281.75" y2="189.923" gradientUnits="userSpaceOnUse">
<stop stop-color="#0F76B0"/>
<stop offset="1" stop-color="#042436"/>
</linearGradient>
<linearGradient id="paint12_linear_1_34" x1="281.75" y1="198.4" x2="281.75" y2="199.457" gradientUnits="userSpaceOnUse">
<stop stop-color="#0F76B0"/>
<stop offset="1" stop-color="#042436"/>
</linearGradient>
<linearGradient id="paint13_linear_1_34" x1="281.75" y1="207.934" x2="281.75" y2="208.991" gradientUnits="userSpaceOnUse">
<stop stop-color="#0F76B0"/>
<stop offset="1" stop-color="#042436"/>
</linearGradient>
<linearGradient id="paint14_linear_1_34" x1="281.75" y1="217.468" x2="281.75" y2="218.526" gradientUnits="userSpaceOnUse">
<stop stop-color="#0F76B0"/>
<stop offset="1" stop-color="#042436"/>
</linearGradient>
<linearGradient id="paint15_linear_1_34" x1="439.651" y1="131.661" x2="439.651" y2="132.718" gradientUnits="userSpaceOnUse">
<stop stop-color="#0F76B0"/>
<stop offset="1" stop-color="#042436"/>
</linearGradient>
<linearGradient id="paint16_linear_1_34" x1="374.418" y1="122.127" x2="374.418" y2="123.184" gradientUnits="userSpaceOnUse">
<stop stop-color="#0F76B0"/>
<stop offset="1" stop-color="#042436"/>
</linearGradient>
<linearGradient id="paint17_linear_1_34" x1="316.487" y1="150.729" x2="316.487" y2="151.786" gradientUnits="userSpaceOnUse">
<stop stop-color="#0F76B0"/>
<stop offset="1" stop-color="#042436"/>
</linearGradient>
<linearGradient id="paint18_linear_1_34" x1="421.69" y1="188.866" x2="421.69" y2="189.923" gradientUnits="userSpaceOnUse">
<stop stop-color="#0F76B0"/>
<stop offset="1" stop-color="#042436"/>
</linearGradient>
<linearGradient id="paint19_linear_1_34" x1="382.867" y1="179.332" x2="382.867" y2="180.389" gradientUnits="userSpaceOnUse">
<stop stop-color="#0F76B0"/>
<stop offset="1" stop-color="#042436"/>
</linearGradient>
<linearGradient id="paint20_linear_1_34" x1="363.761" y1="207.934" x2="363.761" y2="208.991" gradientUnits="userSpaceOnUse">
<stop stop-color="#0F76B0"/>
<stop offset="1" stop-color="#042436"/>
</linearGradient>
<linearGradient id="paint21_linear_1_34" x1="314.374" y1="198.4" x2="314.374" y2="199.457" gradientUnits="userSpaceOnUse">
<stop stop-color="#0F76B0"/>
<stop offset="1" stop-color="#042436"/>
</linearGradient>
<linearGradient id="paint22_linear_1_34" x1="451.499" y1="217.469" x2="451.499" y2="218.526" gradientUnits="userSpaceOnUse">
<stop stop-color="#0F76B0"/>
<stop offset="1" stop-color="#042436"/>
</linearGradient>
<linearGradient id="paint23_linear_1_34" x1="285.974" y1="78.7129" x2="285.974" y2="86.0927" gradientUnits="userSpaceOnUse">
<stop stop-color="#0F76B0"/>
<stop offset="1" stop-color="#042436"/>
</linearGradient>
<linearGradient id="paint24_linear_1_34" x1="293.922" y1="75.9435" x2="293.922" y2="89.0371" gradientUnits="userSpaceOnUse">
<stop stop-color="#0F76B0"/>
<stop offset="1" stop-color="#042436"/>
</linearGradient>
<linearGradient id="paint25_linear_1_34" x1="301.847" y1="78.71" x2="301.847" y2="86.0923" gradientUnits="userSpaceOnUse">
<stop stop-color="#0F76B0"/>
<stop offset="1" stop-color="#042436"/>
</linearGradient>
<linearGradient id="paint26_linear_1_34" x1="55.7146" y1="261.884" x2="55.7146" y2="419.594" gradientUnits="userSpaceOnUse">
<stop stop-color="#0F76B0"/>
<stop offset="1" stop-color="#042436"/>
</linearGradient>
<linearGradient id="paint27_linear_1_34" x1="144.166" y1="238.741" x2="144.166" y2="421.142" gradientUnits="userSpaceOnUse">
<stop stop-color="#0F76B0"/>
<stop offset="1" stop-color="#042436"/>
</linearGradient>
<linearGradient id="paint28_linear_1_34" x1="256.968" y1="265.612" x2="256.968" y2="415.547" gradientUnits="userSpaceOnUse">
<stop stop-color="#0F76B0"/>
<stop offset="1" stop-color="#042436"/>
</linearGradient>
<linearGradient id="paint29_linear_1_34" x1="533.614" y1="242.958" x2="533.614" y2="421.286" gradientUnits="userSpaceOnUse">
<stop stop-color="#0F76B0"/>
<stop offset="1" stop-color="#042436"/>
</linearGradient>
<linearGradient id="paint30_linear_1_34" x1="615.447" y1="268.92" x2="615.447" y2="420.437" gradientUnits="userSpaceOnUse">
<stop stop-color="#0F76B0"/>
<stop offset="1" stop-color="#042436"/>
</linearGradient>
<linearGradient id="paint31_linear_1_34" x1="450.903" y1="268.506" x2="450.903" y2="420.437" gradientUnits="userSpaceOnUse">
<stop stop-color="#0F76B0"/>
<stop offset="1" stop-color="#042436"/>
</linearGradient>
<linearGradient id="paint32_linear_1_34" x1="421.631" y1="332.122" x2="421.631" y2="394.117" gradientUnits="userSpaceOnUse">
<stop stop-color="#0F76B0"/>
<stop offset="1" stop-color="#042436"/>
</linearGradient>
<clipPath id="clip0_1_34">
<rect width="663.143" height="422" fill="white"/>
</clipPath>
</defs>
</svg>
