<svg width="44" height="44" viewBox="0 0 44 44" fill="none" xmlns="http://www.w3.org/2000/svg">
<circle cx="22" cy="22" r="22" fill="white"/>
<circle cx="22" cy="22" r="21.4568" stroke="black" stroke-opacity="0.68" stroke-width="1.08642"/>
<g clip-path="url(#clip0_1_193)">
<path d="M22.1363 28.7512H17.2727C14.8409 28.7512 14.0329 27.1351 14.0329 25.5114V19.0318C14.0329 16.6 14.8409 15.792 17.2727 15.792H22.1363C24.568 15.792 25.376 16.6 25.376 19.0318V25.5114C25.376 27.9432 24.5603 28.7512 22.1363 28.7512Z" stroke="black" stroke-opacity="0.68" stroke-width="1.15432" stroke-linecap="round" stroke-linejoin="round"/>
<path d="M27.5154 26.1963L25.3761 24.6957V19.8398L27.5154 18.3392C28.562 17.6081 29.4239 18.0545 29.4239 19.3396V25.2036C29.4239 26.4887 28.562 26.9351 27.5154 26.1963ZM21.3436 21.5021C21.6498 21.5021 21.9434 21.3804 22.1599 21.164C22.3763 20.9475 22.498 20.6539 22.498 20.3477C22.498 20.0416 22.3763 19.748 22.1599 19.5315C21.9434 19.315 21.6498 19.1934 21.3436 19.1934C21.0375 19.1934 20.7439 19.315 20.5274 19.5315C20.3109 19.748 20.1893 20.0416 20.1893 20.3477C20.1893 20.6539 20.3109 20.9475 20.5274 21.164C20.7439 21.3804 21.0375 21.5021 21.3436 21.5021Z" stroke="black" stroke-opacity="0.68" stroke-width="1.15432" stroke-linecap="round" stroke-linejoin="round"/>
</g>
<defs>
<clipPath id="clip0_1_193">
<rect width="18.4691" height="18.4691" fill="white" transform="translate(12.4938 13.037)"/>
</clipPath>
</defs>
</svg>
